<svg width="60" height="60" viewBox="0 0 60 60" fill="none" xmlns="http://www.w3.org/2000/svg">
<g filter="url(#filter0_d_381_61725)">
<rect x="14" y="12" width="32" height="32" rx="16" fill="white" shape-rendering="crispEdges"/>
<path d="M25 33.2605V22.7425C24.9999 22.5665 25.0463 22.3937 25.1344 22.2414C25.2226 22.0891 25.3493 21.9627 25.5019 21.8751C25.6544 21.7874 25.8274 21.7416 26.0034 21.7422C26.1793 21.7428 26.352 21.7898 26.504 21.8785L35.519 27.1385C35.6698 27.2266 35.795 27.3527 35.8819 27.5042C35.9689 27.6557 36.0147 27.8273 36.0147 28.002C36.0147 28.1767 35.9689 28.3483 35.8819 28.4998C35.795 28.6513 35.6698 28.7774 35.519 28.8655L26.504 34.1245C26.352 34.2132 26.1793 34.2602 26.0034 34.2608C25.8274 34.2614 25.6544 34.2155 25.5019 34.1279C25.3493 34.0402 25.2226 33.9139 25.1344 33.7616C25.0463 33.6093 24.9999 33.4364 25 33.2605Z" fill="#F57E5D"/>
</g>
<defs>
<filter id="filter0_d_381_61725" x="0" y="0" width="60" height="60" filterUnits="userSpaceOnUse" color-interpolation-filters="sRGB">
<feFlood flood-opacity="0" result="BackgroundImageFix"/>
<feColorMatrix in="SourceAlpha" type="matrix" values="0 0 0 0 0 0 0 0 0 0 0 0 0 0 0 0 0 0 127 0" result="hardAlpha"/>
<feOffset dy="2"/>
<feGaussianBlur stdDeviation="7"/>
<feComposite in2="hardAlpha" operator="out"/>
<feColorMatrix type="matrix" values="0 0 0 0 0 0 0 0 0 0 0 0 0 0 0 0 0 0 0.04 0"/>
<feBlend mode="normal" in2="BackgroundImageFix" result="effect1_dropShadow_381_61725"/>
<feBlend mode="normal" in="SourceGraphic" in2="effect1_dropShadow_381_61725" result="shape"/>
</filter>
</defs>
</svg>
