<svg width="18" height="18" viewBox="0 0 18 18" fill="none" xmlns="http://www.w3.org/2000/svg">
<path d="M9 15.7142C8.84524 15.7142 8.71429 15.6607 8.60714 15.5535L3.03571 10.1785C2.97619 10.1309 2.89435 10.0535 2.79018 9.94637C2.68601 9.83922 2.52083 9.64428 2.29464 9.36154C2.06845 9.07881 1.86607 8.78863 1.6875 8.49101C1.50893 8.19339 1.3497 7.83327 1.20982 7.41065C1.06994 6.98803 1 6.57732 1 6.17851C1 4.86899 1.37798 3.84518 2.13393 3.10708C2.88988 2.36899 3.93452 1.99994 5.26786 1.99994C5.6369 1.99994 6.01339 2.06393 6.39732 2.1919C6.78125 2.31988 7.13839 2.4925 7.46875 2.70976C7.79911 2.92702 8.08333 3.13089 8.32143 3.32137C8.55952 3.51184 8.78571 3.71422 9 3.92851C9.21429 3.71422 9.44048 3.51184 9.67857 3.32137C9.91667 3.13089 10.2009 2.92702 10.5313 2.70976C10.8616 2.4925 11.2188 2.31988 11.6027 2.1919C11.9866 2.06393 12.3631 1.99994 12.7321 1.99994C14.0655 1.99994 15.1101 2.36899 15.8661 3.10708C16.622 3.84518 17 4.86899 17 6.17851C17 7.49399 16.3185 8.83327 14.9554 10.1964L9.39286 15.5535C9.28571 15.6607 9.15476 15.7142 9 15.7142Z" fill="black" fill-opacity="0.18"/>
</svg>
