<svg width="16" height="16" viewBox="0 0 16 16" fill="none" xmlns="http://www.w3.org/2000/svg">
<g clip-path="url(#clip0_474_29265)">
<path d="M8.00033 5.33464C6.52699 5.33464 5.33366 6.52797 5.33366 8.0013C5.33366 9.47464 6.52699 10.668 8.00033 10.668C9.47366 10.668 10.667 9.47464 10.667 8.0013C10.667 6.52797 9.47366 5.33464 8.00033 5.33464ZM13.9603 7.33463C13.6537 4.55464 11.447 2.34797 8.66699 2.0413V0.667969H7.33366V2.0413C4.55366 2.34797 2.34699 4.55464 2.04033 7.33463H0.666992V8.66797H2.04033C2.34699 11.448 4.55366 13.6546 7.33366 13.9613V15.3346H8.66699V13.9613C11.447 13.6546 13.6537 11.448 13.9603 8.66797H15.3337V7.33463H13.9603ZM8.00033 12.668C5.42033 12.668 3.33366 10.5813 3.33366 8.0013C3.33366 5.4213 5.42033 3.33464 8.00033 3.33464C10.5803 3.33464 12.667 5.4213 12.667 8.0013C12.667 10.5813 10.5803 12.668 8.00033 12.668Z" fill="#ECEFF1"/>
</g>
<defs>
<clipPath id="clip0_474_29265">
<rect width="16" height="16" fill="white"/>
</clipPath>
</defs>
</svg>
