<svg width="20" height="21" viewBox="0 0 20 21" fill="none" xmlns="http://www.w3.org/2000/svg">
<path d="M9.99967 7.16536C8.15801 7.16536 6.66634 8.65703 6.66634 10.4987C6.66634 12.3404 8.15801 13.832 9.99967 13.832C11.8413 13.832 13.333 12.3404 13.333 10.4987C13.333 8.65703 11.8413 7.16536 9.99967 7.16536ZM17.4497 9.66536C17.0663 6.19036 14.308 3.43203 10.833 3.0487V1.33203H9.16634V3.0487C5.69134 3.43203 2.93301 6.19036 2.54967 9.66536H0.833008V11.332H2.54967C2.93301 14.807 5.69134 17.5654 9.16634 17.9487V19.6654H10.833V17.9487C14.308 17.5654 17.0663 14.807 17.4497 11.332H19.1663V9.66536H17.4497ZM9.99967 16.332C6.77467 16.332 4.16634 13.7237 4.16634 10.4987C4.16634 7.2737 6.77467 4.66536 9.99967 4.66536C13.2247 4.66536 15.833 7.2737 15.833 10.4987C15.833 13.7237 13.2247 16.332 9.99967 16.332Z" fill="#78909C"/>
</svg>
