<svg width="90" height="18" viewBox="0 0 90 18" fill="none" xmlns="http://www.w3.org/2000/svg">
<path d="M9 13.3275L13.635 16.125L12.405 10.8525L16.5 7.305L11.1075 6.8475L9 1.875L6.8925 6.8475L1.5 7.305L5.595 10.8525L4.365 16.125L9 13.3275Z" fill="#FFB400"/>
<path d="M27 13.3275L31.635 16.125L30.405 10.8525L34.5 7.305L29.1075 6.8475L27 1.875L24.8925 6.8475L19.5 7.305L23.595 10.8525L22.365 16.125L27 13.3275Z" fill="#FFB400"/>
<path d="M45 13.3275L49.635 16.125L48.405 10.8525L52.5 7.305L47.1075 6.8475L45 1.875L42.8925 6.8475L37.5 7.305L41.595 10.8525L40.365 16.125L45 13.3275Z" fill="#FFB400"/>
<path d="M63 13.3275L67.635 16.125L66.405 10.8525L70.5 7.305L65.1075 6.8475L63 1.875L60.8925 6.8475L55.5 7.305L59.595 10.8525L58.365 16.125L63 13.3275Z" fill="#FFB400"/>
<mask id="mask0_117_61739" style="mask-type:alpha" maskUnits="userSpaceOnUse" x="72" y="0" width="18" height="18">
<path d="M88.5 7.305L83.1075 6.84L81 1.875L78.8925 6.8475L73.5 7.305L77.595 10.8525L76.365 16.125L81 13.3275L85.635 16.125L84.4125 10.8525L88.5 7.305ZM81 11.925V4.95L82.2825 7.98L85.5675 8.265L83.0775 10.425L83.8275 13.635L81 11.925Z" fill="black"/>
</mask>
<g mask="url(#mask0_117_61739)">
<rect x="72" width="9" height="18" fill="#FFB400"/>
<rect x="81" width="9" height="18" fill="#CFD8DC"/>
</g>
</svg>
